<svg xmlns="http://www.w3.org/2000/svg" width="1120" height="760" viewBox="0 0 1120 760" role="img" aria-labelledby="title desc">
  <title id="title">Current Web Puzzle Sprint Observed Flow</title>
  <desc id="desc">Sanitized schematic of the current web Puzzle Sprint surfaces reviewed in Chrome.</desc>
  <rect width="1120" height="760" fill="#F8FAFC"/>
  <text x="48" y="56" font-family="Inter, Arial, sans-serif" font-size="28" font-weight="700" fill="#111827">Current Web Flow Observed</text>
  <text x="48" y="88" font-family="Inter, Arial, sans-serif" font-size="15" fill="#64748B">Sanitized schematic based on Chrome review. Personal ELO, usernames, stats, and dates are intentionally omitted.</text>

  <defs>
    <filter id="shadow" x="-10%" y="-10%" width="120%" height="120%">
      <feDropShadow dx="0" dy="8" stdDeviation="8" flood-color="#0F172A" flood-opacity="0.10"/>
    </filter>
  </defs>

  <g transform="translate(48,130)" filter="url(#shadow)">
    <rect width="312" height="250" rx="12" fill="#FFFFFF" stroke="#E2E8F0"/>
    <text x="24" y="42" font-family="Inter, Arial, sans-serif" font-size="18" font-weight="700" fill="#111827">Puzzle Sprint Dashboard</text>
    <rect x="24" y="64" width="84" height="22" rx="11" fill="#E2E8F0"/>
    <rect x="118" y="64" width="84" height="22" rx="11" fill="#E2E8F0"/>
    <rect x="212" y="64" width="64" height="22" rx="11" fill="#E2E8F0"/>
    <rect x="24" y="106" width="264" height="42" rx="8" fill="#FFFBEB" stroke="#FED7AA"/>
    <text x="44" y="133" font-family="Inter, Arial, sans-serif" font-size="13" font-weight="700" fill="#92400E">Standard Sprint</text>
    <rect x="24" y="158" width="264" height="42" rx="8" fill="#ECFDF5" stroke="#BBF7D0"/>
    <text x="44" y="185" font-family="Inter, Arial, sans-serif" font-size="13" font-weight="700" fill="#166534">Arrow Duel</text>
    <rect x="24" y="210" width="264" height="24" rx="8" fill="#EFF6FF"/>
    <text x="44" y="227" font-family="Inter, Arial, sans-serif" font-size="12" fill="#1D4ED8">Recent custom sprint rows</text>
  </g>

  <g transform="translate(404,130)" filter="url(#shadow)">
    <rect width="312" height="250" rx="12" fill="#FFFFFF" stroke="#E2E8F0"/>
    <text x="24" y="42" font-family="Inter, Arial, sans-serif" font-size="18" font-weight="700" fill="#111827">Practice Session</text>
    <rect x="24" y="64" width="264" height="32" rx="8" fill="#F1F5F9"/>
    <text x="42" y="85" font-family="Inter, Arial, sans-serif" font-size="12" fill="#475569">Abandon, progress, timer, turn prompt</text>
    <rect x="72" y="116" width="168" height="108" rx="6" fill="#B58863"/>
    <g opacity="0.85">
      <rect x="72" y="116" width="42" height="27" fill="#F0D9B5"/>
      <rect x="156" y="116" width="42" height="27" fill="#F0D9B5"/>
      <rect x="114" y="143" width="42" height="27" fill="#F0D9B5"/>
      <rect x="198" y="143" width="42" height="27" fill="#F0D9B5"/>
      <rect x="72" y="170" width="42" height="27" fill="#F0D9B5"/>
      <rect x="156" y="170" width="42" height="27" fill="#F0D9B5"/>
      <rect x="114" y="197" width="42" height="27" fill="#F0D9B5"/>
      <rect x="198" y="197" width="42" height="27" fill="#F0D9B5"/>
    </g>
  </g>

  <g transform="translate(760,130)" filter="url(#shadow)">
    <rect width="312" height="250" rx="12" fill="#FFFFFF" stroke="#E2E8F0"/>
    <text x="24" y="42" font-family="Inter, Arial, sans-serif" font-size="18" font-weight="700" fill="#111827">Arrow Duel Session</text>
    <rect x="24" y="64" width="264" height="34" rx="8" fill="#F1F5F9"/>
    <text x="42" y="86" font-family="Inter, Arial, sans-serif" font-size="12" fill="#475569">Instruction card plus two candidate arrows</text>
    <rect x="72" y="116" width="168" height="108" rx="6" fill="#B58863"/>
    <line x1="104" y1="144" x2="206" y2="144" stroke="#60A5FA" stroke-width="8" stroke-linecap="round" opacity="0.70"/>
    <polygon points="206,144 190,134 190,154" fill="#60A5FA" opacity="0.70"/>
    <line x1="206" y1="144" x2="206" y2="198" stroke="#60A5FA" stroke-width="8" stroke-linecap="round" opacity="0.70"/>
    <polygon points="206,198 196,182 216,182" fill="#60A5FA" opacity="0.70"/>
  </g>

  <g transform="translate(168,430)" filter="url(#shadow)">
    <rect width="344" height="250" rx="12" fill="#FFFFFF" stroke="#E2E8F0"/>
    <text x="24" y="42" font-family="Inter, Arial, sans-serif" font-size="18" font-weight="700" fill="#111827">Custom Sprint Setup</text>
    <rect x="24" y="66" width="296" height="34" rx="8" fill="#F8FAFC" stroke="#E2E8F0"/>
    <rect x="24" y="112" width="296" height="34" rx="8" fill="#F8FAFC" stroke="#E2E8F0"/>
    <rect x="24" y="158" width="140" height="34" rx="8" fill="#F8FAFC" stroke="#E2E8F0"/>
    <rect x="180" y="158" width="140" height="34" rx="8" fill="#F8FAFC" stroke="#E2E8F0"/>
    <rect x="24" y="208" width="296" height="22" rx="7" fill="#EFF6FF"/>
  </g>

  <g transform="translate(608,430)" filter="url(#shadow)">
    <rect width="344" height="250" rx="12" fill="#FFFFFF" stroke="#E2E8F0"/>
    <text x="24" y="42" font-family="Inter, Arial, sans-serif" font-size="18" font-weight="700" fill="#111827">Settings</text>
    <text x="24" y="72" font-family="Inter, Arial, sans-serif" font-size="12" fill="#64748B">Observed: account links plus ELO controls.</text>
    <rect x="24" y="96" width="296" height="40" rx="8" fill="#F8FAFC" stroke="#E2E8F0"/>
    <rect x="24" y="150" width="296" height="24" rx="7" fill="#F1F5F9"/>
    <rect x="24" y="184" width="296" height="24" rx="7" fill="#F1F5F9"/>
    <rect x="24" y="218" width="296" height="12" rx="6" fill="#E2E8F0"/>
  </g>
</svg>
