<svg xmlns="http://www.w3.org/2000/svg" width="1440" height="980" viewBox="0 0 1440 980" role="img" aria-labelledby="title desc">
  <title id="title">Chessticize Mobile Navigation Flow</title>
  <desc id="desc">Primary navigation and screen transitions for Chessticize Mobile.</desc>
  <rect width="1440" height="980" fill="#F8FAFC"/>
  <text x="56" y="64" font-family="Inter, Arial, sans-serif" font-size="30" font-weight="700" fill="#111827">Navigation Flow</text>
  <text x="56" y="96" font-family="Inter, Arial, sans-serif" font-size="15" fill="#64748B">Practice-first offline app. Game Review is intentionally excluded.</text>

  <defs>
    <marker id="arrow" markerWidth="12" markerHeight="12" refX="10" refY="6" orient="auto">
      <path d="M2,2 L10,6 L2,10 Z" fill="#64748B"/>
    </marker>
    <style>
      .node { fill: #FFFFFF; stroke: #CBD5E1; stroke-width: 1.4; }
      .node-strong { fill: #EFF6FF; stroke: #2563EB; stroke-width: 1.6; }
      .node-review { fill: #F0FDF4; stroke: #16A34A; stroke-width: 1.4; }
      .node-warn { fill: #FFF7ED; stroke: #D97706; stroke-width: 1.4; }
      .title { font-family: Inter, Arial, sans-serif; font-size: 15px; font-weight: 700; fill: #111827; }
      .body { font-family: Inter, Arial, sans-serif; font-size: 12px; fill: #64748B; }
      .small { font-family: Inter, Arial, sans-serif; font-size: 11px; fill: #64748B; }
      .flow { stroke: #64748B; stroke-width: 1.6; fill: none; marker-end: url(#arrow); }
      .flow-primary { stroke: #2563EB; stroke-width: 2; fill: none; marker-end: url(#arrow); }
    </style>
  </defs>

  <g transform="translate(56,136)">
    <rect class="node-strong" width="210" height="74" rx="10"/>
    <text class="title" x="18" y="30">App Launch</text>
    <text class="body" x="18" y="52">Open Practice by default</text>
  </g>

  <g transform="translate(326,120)">
    <rect class="node-strong" width="230" height="104" rx="10"/>
    <text class="title" x="18" y="30">Practice Home</text>
    <text class="body" x="18" y="52">Standard, Arrow Duel, Blitz</text>
    <text class="body" x="18" y="72">Custom, progress, due review</text>
  </g>

  <g transform="translate(638,78)">
    <rect class="node" width="214" height="82" rx="10"/>
    <text class="title" x="18" y="30">Custom Setup</text>
    <text class="body" x="18" y="52">Mode, theme, timing</text>
  </g>

  <g transform="translate(638,188)">
    <rect class="node" width="214" height="82" rx="10"/>
    <text class="title" x="18" y="30">Regular Sprint</text>
    <text class="body" x="18" y="52">Board move submits answer</text>
  </g>

  <g transform="translate(638,298)">
    <rect class="node" width="214" height="82" rx="10"/>
    <text class="title" x="18" y="30">Arrow Duel</text>
    <text class="body" x="18" y="52">Two neutral candidates</text>
  </g>

  <g transform="translate(928,188)">
    <rect class="node-warn" width="224" height="98" rx="10"/>
    <text class="title" x="18" y="30">Sprint Results</text>
    <text class="body" x="18" y="52">Rating change, accuracy</text>
    <text class="body" x="18" y="72">Review mistakes, play again</text>
  </g>

  <g transform="translate(1210,168)">
    <rect class="node-review" width="178" height="82" rx="10"/>
    <text class="title" x="18" y="30">Review Item</text>
    <text class="body" x="18" y="52">Retry or explain</text>
  </g>

  <g transform="translate(56,430)">
    <rect class="node-strong" width="198" height="76" rx="10"/>
    <text class="title" x="18" y="30">Tab Bar</text>
    <text class="body" x="18" y="52">Practice Review History Packs Settings</text>
  </g>

  <g transform="translate(326,392)">
    <rect class="node-review" width="230" height="104" rx="10"/>
    <text class="title" x="18" y="30">Review Queue</text>
    <text class="body" x="18" y="52">Due, overdue, difficulty</text>
    <text class="body" x="18" y="72">Start spaced review</text>
  </g>

  <g transform="translate(638,430)">
    <rect class="node-review" width="214" height="82" rx="10"/>
    <text class="title" x="18" y="30">Arrow Duel Review</text>
    <text class="body" x="18" y="52">Guided line + analysis</text>
  </g>

  <g transform="translate(928,430)">
    <rect class="node-review" width="224" height="82" rx="10"/>
    <text class="title" x="18" y="30">Review Complete</text>
    <text class="body" x="18" y="52">Schedule next interval</text>
  </g>

  <g transform="translate(326,604)">
    <rect class="node" width="230" height="104" rx="10"/>
    <text class="title" x="18" y="30">History</text>
    <text class="body" x="18" y="52">Wrong only, theme</text>
    <text class="body" x="18" y="72">Open attempt review</text>
  </g>

  <g transform="translate(638,620)">
    <rect class="node" width="214" height="82" rx="10"/>
    <text class="title" x="18" y="30">Attempt Detail</text>
    <text class="body" x="18" y="52">Original context and line</text>
  </g>

  <g transform="translate(326,790)">
    <rect class="node" width="230" height="104" rx="10"/>
    <text class="title" x="18" y="30">Puzzle Packs</text>
    <text class="body" x="18" y="52">Bundled and optional packs</text>
    <text class="body" x="18" y="72">Coverage and license notes</text>
  </g>

  <g transform="translate(638,790)">
    <rect class="node" width="214" height="82" rx="10"/>
    <text class="title" x="18" y="30">Pack Detail</text>
    <text class="body" x="18" y="52">Import, remove, attribution</text>
  </g>

  <g transform="translate(928,688)">
    <rect class="node" width="224" height="104" rx="10"/>
    <text class="title" x="18" y="30">Settings</text>
    <text class="body" x="18" y="52">iCloud Sync, Reset ELO</text>
    <text class="body" x="18" y="72">Export, delete, about</text>
  </g>

  <g transform="translate(1210,666)">
    <rect class="node-warn" width="178" height="82" rx="10"/>
    <text class="title" x="18" y="30">Confirm Sheet</text>
    <text class="body" x="18" y="52">Reset or delete action</text>
  </g>

  <g transform="translate(1210,784)">
    <rect class="node" width="178" height="82" rx="10"/>
    <text class="title" x="18" y="30">Sync Disclosure</text>
    <text class="body" x="18" y="52">Local-first iCloud copy</text>
  </g>

  <path class="flow-primary" d="M266,173 C292,173 300,172 326,172"/>
  <path class="flow-primary" d="M556,172 C604,126 604,119 638,119"/>
  <path class="flow-primary" d="M556,172 C604,206 604,229 638,229"/>
  <path class="flow-primary" d="M556,172 C604,278 604,339 638,339"/>
  <path class="flow" d="M745,160 L745,188"/>
  <path class="flow" d="M852,229 C886,229 900,237 928,237"/>
  <path class="flow" d="M852,339 C894,320 902,268 928,252"/>
  <path class="flow" d="M1152,237 C1182,226 1188,214 1210,209"/>
  <path class="flow" d="M1210,209 C1178,286 1136,350 1050,430"/>
  <path class="flow" d="M254,468 C292,462 294,444 326,444"/>
  <path class="flow" d="M556,444 C594,450 602,466 638,471"/>
  <path class="flow" d="M852,471 C882,471 898,471 928,471"/>
  <path class="flow" d="M254,468 C292,558 292,640 326,656"/>
  <path class="flow" d="M556,656 C596,656 604,660 638,661"/>
  <path class="flow" d="M852,661 C988,610 1138,500 1210,250"/>
  <path class="flow" d="M254,468 C282,710 292,826 326,842"/>
  <path class="flow" d="M556,842 C594,842 604,832 638,831"/>
  <path class="flow" d="M254,468 C622,552 794,672 928,740"/>
  <path class="flow" d="M1152,740 C1182,730 1188,712 1210,707"/>
  <path class="flow" d="M1152,740 C1184,778 1188,818 1210,825"/>

  <g transform="translate(56,920)">
    <circle cx="6" cy="-5" r="5" fill="#2563EB"/>
    <text class="small" x="18" y="0">Primary practice flow</text>
    <circle cx="178" cy="-5" r="5" fill="#16A34A"/>
    <text class="small" x="190" y="0">Review flow</text>
    <circle cx="330" cy="-5" r="5" fill="#D97706"/>
    <text class="small" x="342" y="0">Destructive or gated action</text>
  </g>
</svg>
